<?xml version="1.0" encoding="UTF-8"?>
<svg width="512" height="512" viewBox="0 0 512 512" fill="none" xmlns="http://www.w3.org/2000/svg">
  <circle cx="256" cy="256" r="240" fill="#1E293B"/>
  <g transform="translate(96, 96) scale(0.625)">
    <!-- TF Logo -->
    <path d="M256 64C370.875 64 464 157.125 464 272S370.875 480 256 480 48 386.875 48 272 141.125 64 256 64z" fill="#D4AF37"/>
    <path d="M256 96c-97.047 0-176 78.953-176 176s78.953 176 176 176 176-78.953 176-176S353.047 96 256 96z" fill="#1E293B"/>
    <path d="M320 160v48h-64v160h-48V208h-64v-48h176z" fill="#D4AF37"/>
    <path d="M368 208v48h-96v-48h96z" fill="#D4AF37"/>
  </g>
</svg>